<svg height="334pt" viewBox="0 -3 334.50667 334" width="334pt" xmlns="http://www.w3.org/2000/svg"><path d="m20.460938 46.730469 19.160156-19.167969 253.9375 253.867188-19.160156 19.164062zm0 0" fill="#5c9eff"/><path d="m274.386719 307.453125c-1.746094 0-3.496094-.667969-4.828125-2l-253.90625-253.898437c-2.664063-2.667969-2.664063-6.988282 0-9.652344l19.160156-19.167969c2.5625-2.558594 7.09375-2.558594 9.65625 0l253.90625 253.90625c2.664062 2.667969 2.664062 6.988281 0 9.652344l-19.164062 19.160156c-1.332032 1.332031-3.078126 2-4.824219 2zm-244.253907-260.726563 244.253907 244.246094 9.503906-9.507812-244.25-244.25zm0 0" fill="#0e65e5"/><path d="m20.460938 281.460938 253.9375-253.867188 19.160156 19.167969-253.9375 253.863281zm0 0" fill="#5c9eff"/><path d="m39.640625 307.453125c-1.746094 0-3.492187-.667969-4.828125-2l-19.160156-19.160156c-2.664063-2.667969-2.664063-6.988281 0-9.652344l253.90625-253.90625c1.28125-1.28125 3.015625-2 4.828125-2s3.546875.71875 4.824219 2l19.164062 19.164063c2.664062 2.667968 2.664062 6.988281 0 9.652343l-253.90625 253.902344c-1.335938 1.332031-3.082031 2-4.828125 2zm-9.507813-25.988281 9.507813 9.507812 244.253906-244.246094-9.507812-9.511718zm0 0" fill="#0e65e5"/><path d="m6.828125 7.078125h88.746094l-88.746094 88.75zm0 0" fill="#d7e9ff"/><path d="m6.828125 102.652344c-.882813 0-1.769531-.167969-2.613281-.519532-2.554688-1.054687-4.214844-3.546874-4.214844-6.304687v-88.75c0-3.769531 3.054688-6.824219 6.828125-6.824219h88.746094c2.757812 0 5.253906 1.664063 6.304687 4.214844 1.058594 2.550781.472656 5.484375-1.480468 7.4375l-88.746094 88.746094c-1.304688 1.308594-3.050782 2-4.824219 2zm6.824219-88.746094v65.441406l65.441406-65.441406zm0 0" fill="#0e65e5"/><path d="m6.828125 321.105469h88.746094l-88.746094-88.746094zm0 0" fill="#d7e9ff"/><path d="m95.574219 327.933594h-88.746094c-3.773437 0-6.828125-3.058594-6.828125-6.828125v-88.746094c0-2.757813 1.660156-5.25 4.214844-6.304687 2.558594-1.054688 5.484375-.472657 7.4375 1.480468l88.746094 88.746094c1.957031 1.953125 2.539062 4.886719 1.480468 7.4375-1.050781 2.550781-3.546875 4.214844-6.304687 4.214844zm-81.921875-13.652344h65.441406l-65.441406-65.441406zm0 0" fill="#0e65e5"/><path d="m327.679688 7.078125h-88.746094l88.746094 88.75zm0 0" fill="#d7e9ff"/><path d="m327.679688 102.652344c-1.773438 0-3.519532-.691406-4.824219-2l-88.75-88.746094c-1.953125-1.953125-2.539063-4.886719-1.476563-7.4375 1.050782-2.550781 3.542969-4.214844 6.304688-4.214844h88.746094c3.773437 0 6.828124 3.054688 6.828124 6.824219v88.75c0 2.757813-1.660156 5.25-4.214843 6.304687-.847657.351563-1.730469.519532-2.613281.519532zm-72.265626-88.746094 65.4375 65.441406v-65.441406zm0 0" fill="#0e65e5"/><path d="m327.679688 321.105469h-88.746094l88.746094-88.746094zm0 0" fill="#d7e9ff"/><g fill="#0e65e5"><path d="m327.679688 327.933594h-88.746094c-2.761719 0-5.253906-1.664063-6.304688-4.214844-1.0625-2.550781-.472656-5.484375 1.476563-7.4375l88.75-88.746094c1.957031-1.957031 4.882812-2.539062 7.4375-1.480468 2.554687 1.054687 4.214843 3.546874 4.214843 6.304687v88.746094c0 3.769531-3.054687 6.828125-6.828124 6.828125zm-72.265626-13.652344h65.4375v-65.441406zm0 0"/><path d="m307.199219 157.265625c-3.773438 0-6.824219-3.054687-6.824219-6.824219v-27.308594c0-3.769531 3.050781-6.824218 6.824219-6.824218 3.773437 0 6.828125 3.054687 6.828125 6.824218v27.308594c0 3.769532-3.054688 6.824219-6.828125 6.824219zm0 0"/><path d="m320.851562 143.613281h-27.304687c-3.773437 0-6.828125-3.054687-6.828125-6.828125 0-3.769531 3.054688-6.824218 6.828125-6.824218h27.304687c3.773438 0 6.828126 3.054687 6.828126 6.824218 0 3.773438-3.054688 6.828125-6.828126 6.828125zm0 0"/><path d="m191.148438 61.691406c-3.773438 0-6.828126-3.054687-6.828126-6.824218v-27.308594c0-3.769532 3.054688-6.824219 6.828126-6.824219 3.773437 0 6.824218 3.054687 6.824218 6.824219v27.308594c0 3.769531-3.050781 6.824218-6.824218 6.824218zm0 0"/><path d="m204.800781 48.039062h-27.308593c-3.773438 0-6.824219-3.054687-6.824219-6.824218 0-3.773438 3.050781-6.828125 6.824219-6.828125h27.308593c3.773438 0 6.824219 3.054687 6.824219 6.828125 0 3.769531-3.050781 6.824218-6.824219 6.824218zm0 0"/><path d="m129.707031 280.148438c-3.773437 0-6.828125-3.058594-6.828125-6.828126v-27.308593c0-3.769531 3.054688-6.824219 6.828125-6.824219 3.773438 0 6.828125 3.054688 6.828125 6.824219v27.308593c0 3.769532-3.054687 6.828126-6.828125 6.828126zm0 0"/><path d="m143.359375 266.492188h-27.304687c-3.773438 0-6.828126-3.054688-6.828126-6.824219s3.054688-6.828125 6.828126-6.828125h27.304687c3.773437 0 6.828125 3.058594 6.828125 6.828125s-3.054688 6.824219-6.828125 6.824219zm0 0"/><path d="m165.007812 191.398438 19.308594-19.308594 19.308594 19.308594-19.308594 19.308593zm0 0"/><path d="m184.320312 217.535156c-1.8125 0-3.546874-.71875-4.828124-2l-19.304688-19.308594c-2.664062-2.664062-2.664062-6.988281 0-9.652343l19.304688-19.308594c2.5625-2.5625 7.09375-2.5625 9.652343 0l19.308594 19.308594c2.664063 2.664062 2.664063 6.988281 0 9.652343l-19.308594 19.308594c-1.277343 1.28125-3.011719 2-4.824219 2zm-9.652343-26.136718 9.652343 9.65625 9.652344-9.65625-9.652344-9.652344zm0 0"/><path d="m61.441406 240.355469 19.308594 19.308593-19.308594 19.308594-19.308594-19.308594zm0 0"/><path d="m61.441406 285.800781c-1.8125 0-3.546875-.71875-4.828125-2l-19.304687-19.308593c-2.667969-2.664063-2.667969-6.984376 0-9.652344l19.304687-19.308594c2.558594-2.558594 7.09375-2.558594 9.652344 0l19.308594 19.308594c2.664062 2.667968 2.664062 6.988281 0 9.652344l-19.308594 19.308593c-1.277344 1.285157-3.011719 2-4.824219 2zm-9.65625-26.132812 9.65625 9.652343 9.652344-9.652343-9.652344-9.652344zm0 0"/></g></svg>